<?xml version="1.0" encoding="utf-8"?>
<!-- Svg Vector Icons : http://www.onlinewebfonts.com/icon -->
<!DOCTYPE svg PUBLIC "-//W3C//DTD SVG 1.1//EN" "http://www.w3.org/Graphics/SVG/1.1/DTD/svg11.dtd">
<svg version="1.1" xmlns="http://www.w3.org/2000/svg" xmlns:xlink="http://www.w3.org/1999/xlink" x="0px" y="0px" viewBox="0 0 256 256" enable-background="new 0 0 256 256" xml:space="preserve">
<metadata> Svg Vector Icons : http://www.onlinewebfonts.com/icon </metadata>
<g><g><g><g><path fill="#000000" d="M244.3,32.2c-20.5-20.5-59.1-20.5-95.7-1.7c-1.3,17.9,5.4,37.1,20,51.7c11.4,11.4,25.7,18,40,19.7C236.5,68.3,251.2,39,244.3,32.2z M205.7,45.2c-3.2,3.2-8.3,3.2-11.4,0c-3.2-3.2-3.2-8.3,0-11.4c3.2-3.2,8.2-3.2,11.4,0C208.8,36.9,208.8,42,205.7,45.2z"/><path fill="#000000" d="M135.4,38.2c-2.7,1.8-5.4,3.6-8,5.6l-6.3-3.3c-5.5-2.9-12.2-1.9-16.6,2.5L60.4,87.1c-3.2,3.2-4.6,7.7-3.9,12.1s3.4,8.3,7.4,10.4l10,5.3c-10,23.4-15.5,46.3-17,60.8l-43.5,15c-2,0.7-3.3,2.5-3.4,4.5c-0.1,2.1,1,4,2.9,4.9l19,8.9c3.7,1.8,6.7,4.7,8.5,8.5l8.9,19c0.9,1.9,2.8,3,4.9,2.9c2.1-0.1,3.9-1.5,4.6-3.4l15-43.6c20.4-3.4,55.9-19,86.7-42.6l3.4,10.7c0.6,1.9,2.2,3.4,4.2,3.8c2,0.5,4-0.1,5.5-1.5l3.7-3.7c2.8-2.8,4.6-6.6,4.9-10.6l1.3-18.7c5.4-5.4,10.5-10.8,15.3-16.2c-14.2-3.3-28-10.6-39.4-22C144.3,76.4,136.3,57.2,135.4,38.2z"/></g></g><g></g><g></g><g></g><g></g><g></g><g></g><g></g><g></g><g></g><g></g><g></g><g></g><g></g><g></g><g></g></g></g>
</svg>